<?xml version="1.0" encoding="UTF-8"?> <svg xmlns="http://www.w3.org/2000/svg" width="13023" height="162" viewBox="0 0 13023 162" fill="none"> <path fill-rule="evenodd" clip-rule="evenodd" d="M0 110.454L26.5283 103.091C53.0567 95.7273 107.319 81 160.376 73.6364C214.638 66.2727 267.695 66.2727 321.957 73.6364C375.014 81 429.277 95.7273 482.333 92.0455C535.39 88.3636 589.652 66.2727 642.709 62.5909C696.972 58.909 750.028 73.6364 804.291 99.4091C857.347 125.182 911.61 162 964.667 162C1017.72 162 1071.99 125.182 1125.04 114.136C1179.3 103.091 1232.36 117.818 1286.62 121.5C1339.68 125.182 1393.94 117.818 1420.47 114.136L1447 110.454V0H1420.47C1393.94 0 1339.68 0 1286.62 0C1232.36 0 1179.3 0 1125.04 0C1071.99 0 1017.72 0 964.667 0C911.61 0 857.347 0 804.291 0C750.028 0 696.972 0 642.709 0C589.652 0 535.39 0 482.333 0C429.277 0 375.014 0 321.957 0C267.695 0 214.638 0 160.376 0C107.319 0 53.0567 0 26.5283 0H0V110.454Z" fill="#F7F7F6"></path> <path fill-rule="evenodd" clip-rule="evenodd" d="M1447 110.454L1473.53 103.091C1500.06 95.7273 1554.32 81 1607.38 73.6364C1661.64 66.2727 1714.69 66.2727 1768.96 73.6364C1822.01 81 1876.28 95.7273 1929.33 92.0455C1982.39 88.3636 2036.65 66.2727 2089.71 62.5909C2143.97 58.909 2197.03 73.6364 2251.29 99.4091C2304.35 125.182 2358.61 162 2411.67 162C2464.72 162 2518.99 125.182 2572.04 114.136C2626.3 103.091 2679.36 117.818 2733.62 121.5C2786.68 125.182 2840.94 117.818 2867.47 114.136L2894 110.454V0H2867.47C2840.94 0 2786.68 0 2733.62 0C2679.36 0 2626.3 0 2572.04 0C2518.99 0 2464.72 0 2411.67 0C2358.61 0 2304.35 0 2251.29 0C2197.03 0 2143.97 0 2089.71 0C2036.65 0 1982.39 0 1929.33 0C1876.28 0 1822.01 0 1768.96 0C1714.69 0 1661.64 0 1607.38 0C1554.32 0 1500.06 0 1473.53 0H1447V110.454Z" fill="#F7F7F6"></path> <path fill-rule="evenodd" clip-rule="evenodd" d="M2894 110.454L2920.53 103.091C2947.06 95.7273 3001.32 81 3054.38 73.6364C3108.64 66.2727 3161.69 66.2727 3215.96 73.6364C3269.01 81 3323.28 95.7273 3376.33 92.0455C3429.39 88.3636 3483.65 66.2727 3536.71 62.5909C3590.97 58.909 3644.03 73.6364 3698.29 99.4091C3751.35 125.182 3805.61 162 3858.67 162C3911.72 162 3965.99 125.182 4019.04 114.136C4073.3 103.091 4126.36 117.818 4180.62 121.5C4233.68 125.182 4287.94 117.818 4314.47 114.136L4341 110.454V0H4314.47C4287.94 0 4233.68 0 4180.62 0C4126.36 0 4073.3 0 4019.04 0C3965.99 0 3911.72 0 3858.67 0C3805.61 0 3751.35 0 3698.29 0C3644.03 0 3590.97 0 3536.71 0C3483.65 0 3429.39 0 3376.33 0C3323.28 0 3269.01 0 3215.96 0C3161.69 0 3108.64 0 3054.38 0C3001.32 0 2947.06 0 2920.53 0H2894V110.454Z" fill="#F7F7F6"></path> <path fill-rule="evenodd" clip-rule="evenodd" d="M4341 110.454L4367.53 103.091C4394.06 95.7273 4448.32 81 4501.38 73.6364C4555.64 66.2727 4608.69 66.2727 4662.96 73.6364C4716.01 81 4770.28 95.7273 4823.33 92.0455C4876.39 88.3636 4930.65 66.2727 4983.71 62.5909C5037.97 58.909 5091.03 73.6364 5145.29 99.4091C5198.35 125.182 5252.61 162 5305.67 162C5358.72 162 5412.99 125.182 5466.04 114.136C5520.3 103.091 5573.36 117.818 5627.62 121.5C5680.68 125.182 5734.94 117.818 5761.47 114.136L5788 110.454V0H5761.47C5734.94 0 5680.68 0 5627.62 0C5573.36 0 5520.3 0 5466.04 0C5412.99 0 5358.72 0 5305.67 0C5252.61 0 5198.35 0 5145.29 0C5091.03 0 5037.97 0 4983.71 0C4930.65 0 4876.39 0 4823.33 0C4770.28 0 4716.01 0 4662.96 0C4608.69 0 4555.64 0 4501.38 0C4448.32 0 4394.06 0 4367.53 0H4341V110.454Z" fill="#F7F7F6"></path> <path fill-rule="evenodd" clip-rule="evenodd" d="M5788 110.454L5814.53 103.091C5841.06 95.7273 5895.32 81 5948.38 73.6364C6002.64 66.2727 6055.69 66.2727 6109.96 73.6364C6163.01 81 6217.28 95.7273 6270.33 92.0455C6323.39 88.3636 6377.65 66.2727 6430.71 62.5909C6484.97 58.909 6538.03 73.6364 6592.29 99.4091C6645.35 125.182 6699.61 162 6752.67 162C6805.72 162 6859.99 125.182 6913.04 114.136C6967.3 103.091 7020.36 117.818 7074.62 121.5C7127.68 125.182 7181.94 117.818 7208.47 114.136L7235 110.454V0H7208.47C7181.94 0 7127.68 0 7074.62 0C7020.36 0 6967.3 0 6913.04 0C6859.99 0 6805.72 0 6752.67 0C6699.61 0 6645.35 0 6592.29 0C6538.03 0 6484.97 0 6430.71 0C6377.65 0 6323.39 0 6270.33 0C6217.28 0 6163.01 0 6109.96 0C6055.69 0 6002.64 0 5948.38 0C5895.32 0 5841.06 0 5814.53 0H5788V110.454Z" fill="#F7F7F6"></path> <path fill-rule="evenodd" clip-rule="evenodd" d="M7235 110.454L7261.53 103.091C7288.06 95.7273 7342.32 81 7395.38 73.6364C7449.64 66.2727 7502.69 66.2727 7556.96 73.6364C7610.01 81 7664.28 95.7273 7717.33 92.0455C7770.39 88.3636 7824.65 66.2727 7877.71 62.5909C7931.97 58.909 7985.03 73.6364 8039.29 99.4091C8092.35 125.182 8146.61 162 8199.67 162C8252.72 162 8306.99 125.182 8360.04 114.136C8414.3 103.091 8467.36 117.818 8521.62 121.5C8574.68 125.182 8628.94 117.818 8655.47 114.136L8682 110.454V0H8655.47C8628.94 0 8574.68 0 8521.62 0C8467.36 0 8414.3 0 8360.04 0C8306.99 0 8252.72 0 8199.67 0C8146.61 0 8092.35 0 8039.29 0C7985.03 0 7931.97 0 7877.71 0C7824.65 0 7770.39 0 7717.33 0C7664.28 0 7610.01 0 7556.96 0C7502.69 0 7449.64 0 7395.38 0C7342.32 0 7288.06 0 7261.53 0H7235V110.454Z" fill="#F7F7F6"></path> <path fill-rule="evenodd" clip-rule="evenodd" d="M8682 110.454L8708.53 103.091C8735.06 95.7273 8789.32 81 8842.38 73.6364C8896.64 66.2727 8949.69 66.2727 9003.96 73.6364C9057.01 81 9111.28 95.7273 9164.33 92.0455C9217.39 88.3636 9271.65 66.2727 9324.71 62.5909C9378.97 58.909 9432.03 73.6364 9486.29 99.4091C9539.35 125.182 9593.61 162 9646.67 162C9699.72 162 9753.99 125.182 9807.04 114.136C9861.3 103.091 9914.36 117.818 9968.62 121.5C10021.7 125.182 10075.9 117.818 10102.5 114.136L10129 110.454V0H10102.5C10075.9 0 10021.7 0 9968.62 0C9914.36 0 9861.3 0 9807.04 0C9753.99 0 9699.72 0 9646.67 0C9593.61 0 9539.35 0 9486.29 0C9432.03 0 9378.97 0 9324.71 0C9271.65 0 9217.39 0 9164.33 0C9111.28 0 9057.01 0 9003.96 0C8949.69 0 8896.64 0 8842.38 0C8789.32 0 8735.06 0 8708.53 0H8682V110.454Z" fill="#F7F7F6"></path> <path fill-rule="evenodd" clip-rule="evenodd" d="M10129 110.454L10155.5 103.091C10182.1 95.7273 10236.3 81 10289.4 73.6364C10343.6 66.2727 10396.7 66.2727 10451 73.6364C10504 81 10558.3 95.7273 10611.3 92.0455C10664.4 88.3636 10718.7 66.2727 10771.7 62.5909C10826 58.909 10879 73.6364 10933.3 99.4091C10986.3 125.182 11040.6 162 11093.7 162C11146.7 162 11201 125.182 11254 114.136C11308.3 103.091 11361.4 117.818 11415.6 121.5C11468.7 125.182 11522.9 117.818 11549.5 114.136L11576 110.454V0H11549.5C11522.9 0 11468.7 0 11415.6 0C11361.4 0 11308.3 0 11254 0C11201 0 11146.7 0 11093.7 0C11040.6 0 10986.3 0 10933.3 0C10879 0 10826 0 10771.7 0C10718.7 0 10664.4 0 10611.3 0C10558.3 0 10504 0 10451 0C10396.7 0 10343.6 0 10289.4 0C10236.3 0 10182.1 0 10155.5 0H10129V110.454Z" fill="#F7F7F6"></path> <path fill-rule="evenodd" clip-rule="evenodd" d="M11576 110.454L11602.5 103.091C11629.1 95.7273 11683.3 81 11736.4 73.6364C11790.6 66.2727 11843.7 66.2727 11898 73.6364C11951 81 12005.3 95.7273 12058.3 92.0455C12111.4 88.3636 12165.7 66.2727 12218.7 62.5909C12273 58.909 12326 73.6364 12380.3 99.4091C12433.3 125.182 12487.6 162 12540.7 162C12593.7 162 12648 125.182 12701 114.136C12755.3 103.091 12808.4 117.818 12862.6 121.5C12915.7 125.182 12969.9 117.818 12996.5 114.136L13023 110.454V0H12996.5C12969.9 0 12915.7 0 12862.6 0C12808.4 0 12755.3 0 12701 0C12648 0 12593.7 0 12540.7 0C12487.6 0 12433.3 0 12380.3 0C12326 0 12273 0 12218.7 0C12165.7 0 12111.4 0 12058.3 0C12005.3 0 11951 0 11898 0C11843.7 0 11790.6 0 11736.4 0C11683.3 0 11629.1 0 11602.5 0H11576V110.454Z" fill="#F7F7F6"></path> </svg> 