<?xml version="1.0" encoding="UTF-8"?> <svg xmlns="http://www.w3.org/2000/svg" width="13023" height="162" viewBox="0 0 13023 162" fill="none"> <path fill-rule="evenodd" clip-rule="evenodd" d="M0 51.5455L26.5283 58.9091C53.0567 66.2727 107.319 81 160.376 88.3636C214.638 95.7273 267.695 95.7273 321.957 88.3636C375.014 81 429.277 66.2727 482.333 69.9545C535.39 73.6364 589.652 95.7273 642.709 99.4091C696.972 103.091 750.028 88.3636 804.291 62.5909C857.347 36.8182 911.61 0 964.667 0C1017.72 0 1071.99 36.8182 1125.04 47.8636C1179.3 58.9091 1232.36 44.1818 1286.62 40.5C1339.68 36.8182 1393.94 44.1818 1420.47 47.8636L1447 51.5455V162H1420.47C1393.94 162 1339.68 162 1286.62 162C1232.36 162 1179.3 162 1125.04 162C1071.99 162 1017.72 162 964.667 162C911.61 162 857.347 162 804.291 162C750.028 162 696.972 162 642.709 162C589.652 162 535.39 162 482.333 162C429.277 162 375.014 162 321.957 162C267.695 162 214.638 162 160.376 162C107.319 162 53.0567 162 26.5283 162H0V51.5455Z" fill="#F7F7F6"></path> <path fill-rule="evenodd" clip-rule="evenodd" d="M1447 51.5455L1473.53 58.9091C1500.06 66.2727 1554.32 81 1607.38 88.3636C1661.64 95.7273 1714.69 95.7273 1768.96 88.3636C1822.01 81 1876.28 66.2727 1929.33 69.9545C1982.39 73.6364 2036.65 95.7273 2089.71 99.4091C2143.97 103.091 2197.03 88.3636 2251.29 62.5909C2304.35 36.8182 2358.61 0 2411.67 0C2464.72 0 2518.99 36.8182 2572.04 47.8636C2626.3 58.9091 2679.36 44.1818 2733.62 40.5C2786.68 36.8182 2840.94 44.1818 2867.47 47.8636L2894 51.5455V162H2867.47C2840.94 162 2786.68 162 2733.62 162C2679.36 162 2626.3 162 2572.04 162C2518.99 162 2464.72 162 2411.67 162C2358.61 162 2304.35 162 2251.29 162C2197.03 162 2143.97 162 2089.71 162C2036.65 162 1982.39 162 1929.33 162C1876.28 162 1822.01 162 1768.96 162C1714.69 162 1661.64 162 1607.38 162C1554.32 162 1500.06 162 1473.53 162H1447V51.5455Z" fill="#F7F7F6"></path> <path fill-rule="evenodd" clip-rule="evenodd" d="M2894 51.5455L2920.53 58.9091C2947.06 66.2727 3001.32 81 3054.38 88.3636C3108.64 95.7273 3161.69 95.7273 3215.96 88.3636C3269.01 81 3323.28 66.2727 3376.33 69.9545C3429.39 73.6364 3483.65 95.7273 3536.71 99.4091C3590.97 103.091 3644.03 88.3636 3698.29 62.5909C3751.35 36.8182 3805.61 0 3858.67 0C3911.72 0 3965.99 36.8182 4019.04 47.8636C4073.3 58.9091 4126.36 44.1818 4180.62 40.5C4233.68 36.8182 4287.94 44.1818 4314.47 47.8636L4341 51.5455V162H4314.47C4287.94 162 4233.68 162 4180.62 162C4126.36 162 4073.3 162 4019.04 162C3965.99 162 3911.72 162 3858.67 162C3805.61 162 3751.35 162 3698.29 162C3644.03 162 3590.97 162 3536.71 162C3483.65 162 3429.39 162 3376.33 162C3323.28 162 3269.01 162 3215.96 162C3161.69 162 3108.64 162 3054.38 162C3001.32 162 2947.06 162 2920.53 162H2894V51.5455Z" fill="#F7F7F6"></path> <path fill-rule="evenodd" clip-rule="evenodd" d="M4341 51.5455L4367.53 58.9091C4394.06 66.2727 4448.32 81 4501.38 88.3636C4555.64 95.7273 4608.69 95.7273 4662.96 88.3636C4716.01 81 4770.28 66.2727 4823.33 69.9545C4876.39 73.6364 4930.65 95.7273 4983.71 99.4091C5037.97 103.091 5091.03 88.3636 5145.29 62.5909C5198.35 36.8182 5252.61 0 5305.67 0C5358.72 0 5412.99 36.8182 5466.04 47.8636C5520.3 58.9091 5573.36 44.1818 5627.62 40.5C5680.68 36.8182 5734.94 44.1818 5761.47 47.8636L5788 51.5455V162H5761.47C5734.94 162 5680.68 162 5627.62 162C5573.36 162 5520.3 162 5466.04 162C5412.99 162 5358.72 162 5305.67 162C5252.61 162 5198.35 162 5145.29 162C5091.03 162 5037.97 162 4983.71 162C4930.65 162 4876.39 162 4823.33 162C4770.28 162 4716.01 162 4662.96 162C4608.69 162 4555.64 162 4501.38 162C4448.32 162 4394.06 162 4367.53 162H4341V51.5455Z" fill="#F7F7F6"></path> <path fill-rule="evenodd" clip-rule="evenodd" d="M5788 51.5455L5814.53 58.9091C5841.06 66.2727 5895.32 81 5948.38 88.3636C6002.64 95.7273 6055.69 95.7273 6109.96 88.3636C6163.01 81 6217.28 66.2727 6270.33 69.9545C6323.39 73.6364 6377.65 95.7273 6430.71 99.4091C6484.97 103.091 6538.03 88.3636 6592.29 62.5909C6645.35 36.8182 6699.61 0 6752.67 0C6805.72 0 6859.99 36.8182 6913.04 47.8636C6967.3 58.9091 7020.36 44.1818 7074.62 40.5C7127.68 36.8182 7181.94 44.1818 7208.47 47.8636L7235 51.5455V162H7208.47C7181.94 162 7127.68 162 7074.62 162C7020.36 162 6967.3 162 6913.04 162C6859.99 162 6805.72 162 6752.67 162C6699.61 162 6645.35 162 6592.29 162C6538.03 162 6484.97 162 6430.71 162C6377.65 162 6323.39 162 6270.33 162C6217.28 162 6163.01 162 6109.96 162C6055.69 162 6002.64 162 5948.38 162C5895.32 162 5841.06 162 5814.53 162H5788V51.5455Z" fill="#F7F7F6"></path> <path fill-rule="evenodd" clip-rule="evenodd" d="M7235 51.5455L7261.53 58.9091C7288.06 66.2727 7342.32 81 7395.38 88.3636C7449.64 95.7273 7502.69 95.7273 7556.96 88.3636C7610.01 81 7664.28 66.2727 7717.33 69.9545C7770.39 73.6364 7824.65 95.7273 7877.71 99.4091C7931.97 103.091 7985.03 88.3636 8039.29 62.5909C8092.35 36.8182 8146.61 0 8199.67 0C8252.72 0 8306.99 36.8182 8360.04 47.8636C8414.3 58.9091 8467.36 44.1818 8521.62 40.5C8574.68 36.8182 8628.94 44.1818 8655.47 47.8636L8682 51.5455V162H8655.47C8628.94 162 8574.68 162 8521.62 162C8467.36 162 8414.3 162 8360.04 162C8306.99 162 8252.72 162 8199.67 162C8146.61 162 8092.35 162 8039.29 162C7985.03 162 7931.97 162 7877.71 162C7824.65 162 7770.39 162 7717.33 162C7664.28 162 7610.01 162 7556.96 162C7502.69 162 7449.64 162 7395.38 162C7342.32 162 7288.06 162 7261.53 162H7235V51.5455Z" fill="#F7F7F6"></path> <path fill-rule="evenodd" clip-rule="evenodd" d="M8682 51.5455L8708.53 58.9091C8735.06 66.2727 8789.32 81 8842.38 88.3636C8896.64 95.7273 8949.69 95.7273 9003.96 88.3636C9057.01 81 9111.28 66.2727 9164.33 69.9545C9217.39 73.6364 9271.65 95.7273 9324.71 99.4091C9378.97 103.091 9432.03 88.3636 9486.29 62.5909C9539.35 36.8182 9593.61 0 9646.67 0C9699.72 0 9753.99 36.8182 9807.04 47.8636C9861.3 58.9091 9914.36 44.1818 9968.62 40.5C10021.7 36.8182 10075.9 44.1818 10102.5 47.8636L10129 51.5455V162H10102.5C10075.9 162 10021.7 162 9968.62 162C9914.36 162 9861.3 162 9807.04 162C9753.99 162 9699.72 162 9646.67 162C9593.61 162 9539.35 162 9486.29 162C9432.03 162 9378.97 162 9324.71 162C9271.65 162 9217.39 162 9164.33 162C9111.28 162 9057.01 162 9003.96 162C8949.69 162 8896.64 162 8842.38 162C8789.32 162 8735.06 162 8708.53 162H8682V51.5455Z" fill="#F7F7F6"></path> <path fill-rule="evenodd" clip-rule="evenodd" d="M10129 51.5455L10155.5 58.9091C10182.1 66.2727 10236.3 81 10289.4 88.3636C10343.6 95.7273 10396.7 95.7273 10451 88.3636C10504 81 10558.3 66.2727 10611.3 69.9545C10664.4 73.6364 10718.7 95.7273 10771.7 99.4091C10826 103.091 10879 88.3636 10933.3 62.5909C10986.3 36.8182 11040.6 0 11093.7 0C11146.7 0 11201 36.8182 11254 47.8636C11308.3 58.9091 11361.4 44.1818 11415.6 40.5C11468.7 36.8182 11522.9 44.1818 11549.5 47.8636L11576 51.5455V162H11549.5C11522.9 162 11468.7 162 11415.6 162C11361.4 162 11308.3 162 11254 162C11201 162 11146.7 162 11093.7 162C11040.6 162 10986.3 162 10933.3 162C10879 162 10826 162 10771.7 162C10718.7 162 10664.4 162 10611.3 162C10558.3 162 10504 162 10451 162C10396.7 162 10343.6 162 10289.4 162C10236.3 162 10182.1 162 10155.5 162H10129V51.5455Z" fill="#F7F7F6"></path> <path fill-rule="evenodd" clip-rule="evenodd" d="M11576 51.5455L11602.5 58.9091C11629.1 66.2727 11683.3 81 11736.4 88.3636C11790.6 95.7273 11843.7 95.7273 11898 88.3636C11951 81 12005.3 66.2727 12058.3 69.9545C12111.4 73.6364 12165.7 95.7273 12218.7 99.4091C12273 103.091 12326 88.3636 12380.3 62.5909C12433.3 36.8182 12487.6 0 12540.7 0C12593.7 0 12648 36.8182 12701 47.8636C12755.3 58.9091 12808.4 44.1818 12862.6 40.5C12915.7 36.8182 12969.9 44.1818 12996.5 47.8636L13023 51.5455V162H12996.5C12969.9 162 12915.7 162 12862.6 162C12808.4 162 12755.3 162 12701 162C12648 162 12593.7 162 12540.7 162C12487.6 162 12433.3 162 12380.3 162C12326 162 12273 162 12218.7 162C12165.7 162 12111.4 162 12058.3 162C12005.3 162 11951 162 11898 162C11843.7 162 11790.6 162 11736.4 162C11683.3 162 11629.1 162 11602.5 162H11576V51.5455Z" fill="#F7F7F6"></path> </svg> 